<?xml version="1.0" standalone="no"?>
<!DOCTYPE svg PUBLIC "-//W3C//DTD SVG 20010904//EN"
 "http://www.w3.org/TR/2001/REC-SVG-20010904/DTD/svg10.dtd">
<svg version="1.0" xmlns="http://www.w3.org/2000/svg"
 width="460.000000pt" height="460.000000pt" viewBox="0 0 460.000000 460.000000"
 preserveAspectRatio="xMidYMid meet">

<g transform="translate(0.000000,460.000000) scale(0.100000,-0.100000)"
fill="#000000" stroke="none">
<path d="M0 3698 c1 -692 4 -905 13 -917 9 -11 9 -13 0 -8 -9 6 -12 -312 -12
-1383 l0 -1390 2299 0 c2202 0 2300 1 2300 18 0 10 -6 24 -13 31 -9 10 -9 12
0 7 18 -10 19 2580 1 2602 -10 13 -10 14 -1 8 10 -6 13 191 13 964 l0 971
-228 -1 c-158 -1 -231 -5 -241 -13 -12 -9 -13 -9 -7 1 5 9 -3 12 -31 12 -22 0
-45 -6 -52 -12 -11 -10 -12 -10 -7 -1 5 10 -417 13 -2013 13 l-2021 0 0 -902z
m3940 856 c0 -8 -19 -13 -24 -6 -3 5 1 9 9 9 8 0 15 -2 15 -3z m-3789 -57
c-10 -9 -11 -8 -5 6 3 10 9 15 12 12 3 -3 0 -11 -7 -18z m859 13 c0 -5 -2 -10
-4 -10 -3 0 -8 5 -11 10 -3 6 -1 10 4 10 6 0 11 -4 11 -10z m2700 -74 c0 -3
-4 -8 -10 -11 -5 -3 -10 -1 -10 4 0 6 5 11 10 11 6 0 10 -2 10 -4z m380 -32
c0 -8 -19 -13 -24 -6 -3 5 1 9 9 9 8 0 15 -2 15 -3z m-3145 -104 c3 -6 -1 -7
-9 -4 -18 7 -21 14 -7 14 6 0 13 -4 16 -10z m-210 -78 c-3 -3 -11 0 -18 7 -9
10 -8 11 6 5 10 -3 15 -9 12 -12z m-217 -67 c-3 -3 -9 2 -12 12 -6 14 -5 15 5
6 7 -7 10 -15 7 -18z m3142 -69 c0 -2 -7 -7 -16 -10 -8 -3 -12 -2 -9 4 6 10
25 14 25 6z m833 -181 c4 -8 3 -16 -1 -19 -4 -3 -9 4 -9 15 -2 23 3 25 10 4z
m-4123 -21 c0 -8 -19 -13 -24 -6 -3 5 1 9 9 9 8 0 15 -2 15 -3z m3858 -449
c-3 -3 -9 2 -12 12 -6 14 -5 15 5 6 7 -7 10 -15 7 -18z m-4120 -50 c-3 -3 -9
2 -12 12 -6 14 -5 15 5 6 7 -7 10 -15 7 -18z m150 -320 c-3 -3 -9 2 -12 12 -6
14 -5 15 5 6 7 -7 10 -15 7 -18z m4102 1 c0 -2 -7 -7 -16 -10 -8 -3 -12 -2 -9
4 6 10 25 14 25 6z m-267 -197 c-8 -8 -13 -7 -18 2 -5 8 -4 10 3 5 7 -4 12 -2
12 5 0 7 3 9 7 6 4 -4 2 -12 -4 -18z m351 -161 c-3 -4 -9 -8 -15 -8 -5 0 -9 4
-9 8 0 5 7 9 15 9 8 0 12 -4 9 -9z m-100 -46 c3 -5 -1 -9 -9 -9 -8 0 -12 4 -9
9 3 4 7 8 9 8 2 0 6 -4 9 -8z m-300 -148 c3 -8 2 -12 -4 -9 -6 3 -10 10 -10
16 0 14 7 11 14 -7z m-3974 -10 c0 -8 -19 -13 -24 -6 -3 5 1 9 9 9 8 0 15 -2
15 -3z m202 -51 c-6 -3 -9 -10 -5 -16 4 -7 -1 -6 -10 2 -21 17 -21 17 6 18 12
0 16 -1 9 -4z m-165 -108 c-15 -16 -19 -13 -11 9 3 9 10 13 15 10 5 -3 3 -11
-4 -19z m2323 6 c0 -5 -10 -11 -22 -14 -22 -6 -22 -6 -4 8 23 17 26 18 26 6z
m75 -11 c13 -6 15 -9 5 -9 -8 0 -22 4 -30 9 -18 12 -2 12 25 0z m77 -40 l33
-31 -40 26 c-48 32 -52 35 -37 35 7 0 26 -14 44 -30z m-145 -10 c61 -31 138
-98 162 -139 7 -13 15 -58 18 -100 5 -63 3 -79 -11 -90 -9 -7 -16 -25 -16 -40
0 -14 -9 -37 -20 -51 l-20 -25 11 30 c6 17 11 62 12 100 1 62 -2 76 -32 128
-18 31 -52 74 -77 94 -45 38 -52 53 -15 34 17 -10 20 -9 15 4 -4 8 -10 15 -16
15 -5 0 -7 4 -4 9 6 10 -52 27 -69 21 -5 -2 -38 -4 -73 -6 -66 -2 -117 -21
-159 -57 -13 -12 -28 -21 -31 -21 -4 1 -13 -7 -20 -17 -14 -21 -32 -25 -32 -8
0 5 5 7 11 3 7 -4 9 0 6 12 -8 24 60 80 135 111 78 33 151 31 225 -7z m75 3
c27 -15 54 -36 60 -47 11 -21 10 -21 -13 0 -30 27 -60 42 -113 59 -37 12 -38
13 -12 14 15 1 51 -11 78 -26z m-151 -74 c37 -15 72 -41 111 -80 48 -50 58
-67 68 -115 21 -98 -14 -181 -100 -238 -92 -61 -279 -16 -334 79 -32 54 -42
120 -26 171 25 82 46 124 63 130 9 3 17 9 17 14 0 21 77 56 131 59 9 1 41 -9
70 -20z m1450 -16 c13 -16 12 -17 -3 -4 -17 13 -22 21 -14 21 2 0 10 -8 17
-17z m-1759 -133 c-6 -17 -9 -37 -6 -44 3 -8 -3 -16 -15 -19 -18 -4 -20 -2
-15 21 8 31 36 83 42 77 2 -2 -1 -18 -6 -35z m12 -197 c6 -24 3 -23 -18 12
-17 28 -23 49 -19 70 6 29 6 29 18 -12 7 -23 15 -54 19 -70z m1842 65 c4 -7 3
-8 -4 -4 -7 4 -12 2 -12 -4 0 -6 -5 -8 -11 -4 -8 4 -7 9 2 15 18 11 17 11 25
-3z m-1899 -60 c-3 -8 -6 -5 -6 6 -1 11 2 17 5 13 3 -3 4 -12 1 -19z m653 18
c0 -3 -4 -8 -10 -11 -5 -3 -10 -1 -10 4 0 6 5 11 10 11 6 0 10 -2 10 -4z m28
-26 c-7 -11 -15 -15 -17 -9 -2 6 3 15 10 20 20 12 21 11 7 -11z m-613 -103 c4
5 5 3 2 -3 -4 -7 10 -19 33 -29 22 -10 45 -24 51 -31 6 -7 18 -10 26 -7 10 4
14 2 10 -4 -4 -7 15 -11 56 -12 59 -1 61 0 37 14 -37 21 -40 22 -102 45 -31
11 -59 27 -62 36 -4 10 9 6 39 -12 25 -14 52 -23 61 -20 8 3 12 2 9 -3 -11
-18 80 -23 139 -8 64 17 66 13 8 -14 l-37 -17 30 -2 30 -2 -30 -10 c-16 -5
-44 -16 -62 -24 -45 -20 -71 -18 -133 14 -89 44 -138 84 -155 125 -23 56 -18
58 13 4 16 -26 32 -44 37 -40z m948 34 c-6 -3 -13 -15 -17 -26 -6 -22 -92
-116 -119 -131 -23 -14 -77 -85 -71 -95 3 -5 1 -9 -5 -9 -5 0 -12 -13 -16 -29
-3 -16 -12 -32 -19 -34 -16 -6 -28 -47 -15 -47 6 0 6 -6 2 -15 -14 -25 -190
-202 -208 -208 -9 -4 -14 -3 -10 3 3 6 1 10 -4 10 -6 0 -11 -18 -11 -40 0 -40
-5 -46 -26 -32 -12 8 -29 110 -25 155 3 32 -7 34 -37 7 -12 -11 -28 -20 -36
-20 -9 0 -31 -14 -50 -30 -35 -31 -54 -71 -58 -122 -1 -16 -8 -28 -15 -28 -7
0 -13 -4 -13 -9 0 -5 -17 -15 -37 -21 -21 -7 -54 -22 -73 -34 -19 -11 -47 -28
-62 -36 -14 -8 -41 -23 -58 -33 l-32 -18 7 23 c3 13 3 18 -2 13 -4 -6 -28 -17
-53 -25 -25 -7 -52 -20 -61 -27 -8 -7 -21 -13 -27 -13 -7 0 -12 -7 -12 -16 0
-9 -5 -14 -12 -12 -11 4 -36 100 -37 146 -1 35 -49 129 -77 151 -13 10 -47 22
-74 26 -28 4 -57 13 -64 20 -18 18 -30 6 -14 -13 7 -8 18 -28 24 -46 6 -17 23
-59 37 -93 14 -35 22 -63 17 -63 -5 0 -14 9 -20 19 -5 11 -20 23 -32 27 -13 4
-36 17 -51 30 -16 13 -34 24 -42 24 -7 0 -18 7 -25 16 -8 8 -27 22 -44 30 -64
30 -110 63 -123 88 -8 14 -20 26 -28 26 -13 0 -20 19 -16 44 1 5 -5 6 -14 3
-9 -4 -21 3 -32 21 -18 26 -29 40 -73 92 -27 30 -40 63 -40 97 0 25 1 25 19 9
11 -10 25 -15 30 -11 6 3 11 2 11 -4 0 -6 7 -8 15 -5 9 4 29 -9 52 -34 21 -22
44 -37 51 -35 6 3 12 0 12 -6 0 -6 -5 -11 -11 -11 -5 0 2 -15 16 -34 14 -18
23 -40 20 -47 -6 -17 56 -89 76 -89 8 -1 34 -18 59 -40 24 -22 46 -37 49 -34
2 2 -3 10 -12 17 -10 6 -19 22 -22 34 -2 13 -11 33 -19 45 -9 12 -16 33 -16
46 0 16 -4 21 -12 16 -10 -6 -10 -4 0 8 10 13 10 17 -3 22 -8 3 -15 11 -15 17
0 8 7 7 23 -3 12 -8 35 -18 51 -22 16 -4 45 -18 65 -32 19 -13 44 -24 54 -24
10 0 34 -8 55 -19 28 -14 61 -19 137 -20 54 -1 100 -3 102 -5 5 -5 -22 -56
-29 -56 -5 0 -9 10 -9 23 -1 17 -2 18 -6 4 -3 -10 0 -23 5 -30 5 -7 13 -26 16
-43 4 -17 15 -40 26 -51 16 -17 16 -22 5 -34 -8 -8 -11 -19 -7 -26 6 -9 21 -9
67 3 33 9 71 21 85 28 14 7 53 19 88 26 34 7 64 16 66 19 2 3 7 36 11 74 6 57
4 67 -9 67 -34 0 -13 27 33 44 28 10 55 24 62 32 6 8 17 14 23 14 16 0 110 64
173 116 28 24 56 44 61 44 5 0 12 7 16 15 3 8 11 15 17 15 9 0 9 -3 0 -14 -9
-11 -9 -15 1 -18 10 -4 10 -9 -2 -23 -8 -10 -14 -21 -12 -24 2 -3 -2 -7 -9
-10 -7 -2 -9 1 -4 9 6 9 4 11 -4 5 -9 -5 -10 -10 -2 -18 6 -6 11 -18 11 -27 0
-13 -2 -13 -10 0 -8 11 -9 9 -5 -10 7 -31 7 -56 1 -97 -7 -39 -5 -40 19 -13
18 20 18 21 1 14 -16 -6 -17 -5 -6 16 8 15 15 19 19 11 5 -8 14 -4 27 11 14
17 15 19 2 9 -20 -15 -38 -7 -37 17 0 15 1 15 8 -1 6 -17 8 -17 25 2 10 11 22
18 27 16 4 -3 11 0 15 6 5 8 3 9 -7 4 -8 -5 -6 1 5 13 10 12 23 20 30 19 6 -1
31 37 55 86 24 48 48 87 53 87 5 0 35 27 66 60 32 33 63 60 70 60 7 0 11 -4 8
-8 -2 -4 3 -8 13 -8 13 0 17 7 15 23 -1 13 3 23 10 23 6 0 18 9 26 20 9 12 16
16 19 9 2 -6 -1 -14 -6 -18z m-455 -9 c2 -7 -1 -12 -8 -12 -6 0 -8 5 -4 11 4
7 1 10 -7 7 -8 -3 -13 -15 -11 -28 2 -12 -1 -20 -6 -16 -5 3 -20 -2 -33 -12
-31 -23 -80 -44 -87 -37 -9 8 29 34 71 46 20 7 35 14 32 17 -8 8 27 43 39 39
5 -2 12 -9 14 -15z m421 -103 c-24 -15 -29 -10 -11 11 10 12 18 16 21 9 2 -6
-3 -15 -10 -20z m1488 -31 c-3 -8 -6 -5 -6 6 -1 11 2 17 5 13 3 -3 4 -12 1
-19z m-1522 -14 c14 -9 25 -21 25 -26 0 -5 -7 -2 -16 6 -8 9 -22 16 -30 16 -8
0 -14 5 -14 10 0 14 7 13 35 -6z m-215 -34 c0 -5 -4 -10 -10 -10 -5 0 -10 5
-10 10 0 6 5 10 10 10 6 0 10 -4 10 -10z m441 -13 c-10 -9 -11 -8 -5 6 3 10 9
15 12 12 3 -3 0 -11 -7 -18z m-3023 -32 c-3 -3 -9 2 -12 12 -6 14 -5 15 5 6 7
-7 10 -15 7 -18z m1022 15 c0 -5 -4 -10 -10 -10 -5 0 -10 5 -10 10 0 6 5 10
10 10 6 0 10 -4 10 -10z m3120 -10 c0 -5 -2 -10 -4 -10 -3 0 -8 5 -11 10 -3 6
-1 10 4 10 6 0 11 -4 11 -10z m-2914 -237 c-7 -7 -26 7 -26 19 0 6 6 6 15 -2
9 -7 13 -15 11 -17z m-126 -25 c0 -6 -6 -5 -15 2 -8 7 -15 14 -15 16 0 2 7 1
15 -2 8 -4 15 -11 15 -16z m50 -60 c0 -5 -4 -8 -10 -8 -5 0 -10 10 -10 23 0
18 2 19 10 7 5 -8 10 -18 10 -22z m36 -50 c15 -28 15 -29 -5 -18 -28 15 -45
47 -25 47 8 0 22 -13 30 -29z m904 -138 c0 -5 -2 -10 -4 -10 -3 0 -8 5 -11 10
-3 6 -1 10 4 10 6 0 11 -4 11 -10z m1944 -489 c3 -5 -1 -11 -9 -14 -9 -4 -12
-1 -8 9 6 16 10 17 17 5z"/>
<path d="M2480 2216 c0 -2 12 -19 28 -38 15 -19 36 -53 47 -76 11 -23 24 -42
29 -42 4 0 6 24 2 53 -3 28 -6 53 -6 55 0 1 -8 2 -18 2 -10 0 -25 11 -32 25
-7 14 -22 25 -32 25 -10 0 -18 -2 -18 -4z"/>
<path d="M2370 2121 c-22 -7 -20 -8 18 -12 42 -5 56 3 26 15 -9 3 -16 6 -17 5
-1 -1 -13 -4 -27 -8z"/>
<path d="M2188 2097 c-27 -6 -48 -14 -48 -18 0 -16 33 -18 69 -3 22 8 61 19
88 24 l48 8 -55 -1 c-30 0 -76 -4 -102 -10z"/>
<path d="M2220 2035 c0 -10 -11 -33 -25 -51 -26 -34 -35 -56 -12 -32 6 8 25
28 40 44 25 27 26 32 12 44 -12 10 -15 10 -15 -5z"/>
<path d="M2272 1984 c-1 -19 -9 -49 -18 -66 -8 -16 -13 -32 -11 -34 6 -7 47
82 50 108 1 11 -2 22 -8 24 -5 2 -11 -12 -13 -32z"/>
<path d="M2336 2004 c-3 -9 -6 -38 -6 -65 0 -44 3 -51 25 -59 16 -6 34 -6 52
1 14 5 32 8 39 5 8 -3 16 -1 19 4 7 11 0 12 -70 14 l-50 1 3 58 c4 57 0 71
-12 41z"/>
<path d="M2392 2000 c-16 -27 -16 -28 13 -22 28 5 31 14 12 30 -9 8 -16 6 -25
-8z"/>
<path d="M2220 1936 c0 -9 5 -16 10 -16 6 0 10 4 10 9 0 6 -4 13 -10 16 -5 3
-10 -1 -10 -9z"/>
<path d="M2863 1665 c-29 -29 -54 -51 -56 -49 -1 2 -25 -40 -53 -93 -37 -73
-68 -115 -128 -177 -78 -81 -78 -81 -86 -54 -5 15 -10 59 -11 98 -3 55 0 73
11 80 8 5 10 10 4 10 -14 0 -64 -46 -58 -53 7 -7 -91 -70 -150 -98 -62 -29
-74 -46 -82 -114 -8 -69 -13 -74 -79 -105 -50 -22 -260 -90 -281 -90 -13 0
-23 23 -56 132 l-23 77 -85 27 c-84 27 -187 67 -223 86 -11 5 -21 7 -24 4 -5
-5 -2 -11 58 -120 20 -36 33 -66 29 -66 -36 0 -104 39 -160 93 -16 15 -33 27
-37 27 -18 0 -63 63 -69 96 -8 44 -45 99 -66 99 -9 0 -20 4 -24 8 -14 14 -24
7 -15 -10 5 -10 19 -44 31 -75 12 -32 26 -55 31 -52 14 8 11 26 -11 69 -11 21
-19 40 -17 41 1 1 11 -5 23 -15 12 -9 27 -40 34 -70 7 -30 21 -61 31 -70 111
-95 146 -121 182 -136 20 -8 38 -19 42 -25 3 -5 15 -10 26 -10 11 0 17 -4 14
-10 -3 -5 -2 -10 4 -10 5 0 12 4 16 9 7 12 -24 91 -42 109 -7 7 -13 22 -13 31
0 10 -7 24 -15 31 -8 7 -15 17 -15 23 0 5 8 3 18 -6 9 -8 37 -20 62 -27 25 -7
50 -16 55 -21 6 -4 42 -16 80 -26 l70 -18 7 -42 c4 -23 13 -54 21 -70 8 -15
18 -43 22 -61 6 -29 45 -67 45 -43 0 5 21 13 48 16 50 7 110 24 128 37 5 4 36
14 69 22 34 9 64 24 72 36 8 11 23 20 34 20 17 0 19 7 19 69 l0 70 58 32 c31
18 83 48 115 67 31 19 60 32 63 29 3 -3 8 -31 10 -63 5 -66 12 -94 24 -94 11
0 130 118 164 163 15 19 43 67 62 107 24 47 58 94 100 136 35 36 64 67 64 69
0 12 -19 -2 -67 -50z"/>
</g>
</svg>
